<svg width="50" height="50" viewBox="0 0 50 50" fill="none" xmlns="http://www.w3.org/2000/svg">
<rect width="50" height="50" rx="10" fill="#DF42B1"/>
<path d="M30.5081 7.64641C30.264 7.86126 30.2347 7.95891 30.1175 9.14055C29.932 11.0253 29.9417 11.582 30.1761 11.8163C30.43 12.0702 30.9866 12.08 31.2405 11.8261C31.4456 11.621 31.4847 11.3964 31.6409 9.77532C31.7972 8.12493 31.7777 7.86126 31.4847 7.62688C31.1429 7.36321 30.8402 7.36321 30.5081 7.64641Z" fill="white"/>
<path d="M11.1814 10.2051C10.654 10.3906 10.3611 10.7617 9.98021 11.7578L9.65794 12.5879L8.67162 13.1055C7.58763 13.6816 7.32396 13.9648 7.24584 14.5996C7.14818 15.5078 7.49974 15.9668 8.76927 16.5918L9.64818 17.0215L9.99974 17.9102C10.1951 18.3984 10.4099 18.8672 10.4783 18.9551C10.7126 19.2676 11.2693 19.5312 11.699 19.5312C12.529 19.5312 12.9294 19.1602 13.4275 17.9102L13.779 17.0312L14.4724 16.6895C15.8005 16.0547 16.2107 15.6055 16.2107 14.7949C16.2107 14.082 15.8689 13.7012 14.6677 13.0859C14.2283 12.8516 13.8279 12.6172 13.7888 12.5586C13.74 12.5 13.5544 12.0898 13.3786 11.6406C13.0173 10.7324 12.6658 10.3125 12.1286 10.1562C11.6794 10.0391 11.6599 10.0391 11.1814 10.2051ZM12.1091 12.6465C12.2751 13.0762 12.5095 13.5352 12.6267 13.6621C12.7439 13.7793 13.2224 14.082 13.7009 14.3164C14.1697 14.5508 14.5505 14.7852 14.5505 14.8242C14.5505 14.8633 14.1306 15.1074 13.6228 15.3613C12.5974 15.8887 12.4607 16.0547 12.0017 17.2559C11.8747 17.5977 11.738 17.8711 11.7087 17.8711C11.6794 17.8711 11.5036 17.5 11.3279 17.0508C10.947 16.0547 10.6833 15.791 9.57005 15.2344L8.73998 14.8145L9.68724 14.3457C10.2048 14.0918 10.7126 13.7598 10.8201 13.623C10.9275 13.4863 11.1716 12.998 11.3474 12.5488C11.5232 12.0996 11.699 11.7578 11.738 11.7969C11.7673 11.8359 11.9431 12.2168 12.1091 12.6465Z" fill="white"/>
<path d="M36.7285 11.5527C36.5918 11.6113 35.9277 12.3437 35.2344 13.164C34.2383 14.3554 33.9844 14.7167 33.9844 14.9511C33.9844 15.5663 34.7754 15.9472 35.2246 15.5468C35.4492 15.3515 37.3828 13.0566 37.627 12.6952C37.8516 12.373 37.832 12.0702 37.5781 11.7773C37.2949 11.4745 37.0215 11.3964 36.7285 11.5527Z" fill="white"/>
<path d="M20.6055 14.4531C20.0098 14.6484 19.2188 15.4003 19.1016 15.8691C19.0625 16.0058 16.3965 21.5331 13.1641 28.1542L7.28516 40.1855L7.27539 40.9863C7.27539 41.7187 7.29492 41.8163 7.56836 42.1972C8.1543 43.0273 9.11133 43.4472 9.98047 43.2421C10.3516 43.164 11.7383 42.4999 20.4102 38.2617C22.0996 37.4316 26.0156 35.5273 29.1016 34.0331C34.2773 31.5136 34.7559 31.2597 35.2637 30.7617C35.7227 30.3222 35.8496 30.1171 35.9961 29.6386C36.709 27.1581 34.4922 22.8808 30.4883 19.0331C26.8066 15.4882 22.8809 13.662 20.6055 14.4531ZM22.8906 15.9765C23.2129 16.0546 23.8867 16.3183 24.375 16.5429C29.1016 18.7792 34.2578 24.7753 34.541 28.3691C34.5801 28.9745 34.5605 29.0917 34.3555 29.3945C34.0039 29.912 33.4961 30.0585 32.5977 29.9023C28.3496 29.1699 21.7383 22.705 20.5957 18.1738C20.1074 16.2206 20.8887 15.4589 22.8906 15.9765ZM19.3359 19.4628C19.3359 19.6972 20.4004 21.7284 20.957 22.5585C23.2227 25.9374 26.6309 29.0331 29.7559 30.537C30.2832 30.8007 30.8398 31.0546 30.9961 31.1034C31.2598 31.1913 31.0156 31.3378 27.1191 33.2421C24.5508 34.5019 22.9102 35.2538 22.8613 35.1952C22.7148 35.0488 16.8652 24.3749 16.8652 24.2577C16.8652 24.0917 19.1797 19.3456 19.2676 19.3359C19.3066 19.3359 19.3359 19.3945 19.3359 19.4628ZM18.6816 30.9081C20.1172 33.5156 21.2891 35.6933 21.2891 35.7324C21.2891 35.8495 17.2461 37.9784 17.168 37.9003C17.1289 37.871 16.2988 36.2988 15.3223 34.4238L13.5547 31.0058L14.7559 28.5937C15.4199 27.2558 15.9863 26.1718 16.0254 26.1718C16.0547 26.1718 17.2559 28.3007 18.6816 30.9081ZM14.2578 35.7519C15.0879 37.3632 15.7617 38.7109 15.7422 38.7499C15.6641 38.9159 9.79492 41.6992 9.53125 41.6992C9.15039 41.6992 8.78906 41.3574 8.78906 40.996C8.78906 40.7421 12.5684 32.8124 12.6855 32.8124C12.7246 32.8124 13.4277 34.1406 14.2578 35.7519Z" fill="white"/>
<path d="M40.5277 17.2461C39.4925 17.5293 38.8382 17.7636 38.7015 17.8906C38.3109 18.2519 38.4476 18.9648 38.9359 19.1504C39.1312 19.2187 39.5413 19.1504 40.8597 18.7988C42.637 18.3203 42.9691 18.1347 42.9691 17.6269C42.9691 17.3535 42.6175 16.9336 42.3343 16.8652C42.2269 16.8359 41.4163 17.0117 40.5277 17.2461Z" fill="white"/>
<path d="M34.4236 34.0722C33.906 34.3066 33.8279 34.4043 33.3982 35.4687L33.0271 36.3769L32.2068 36.8164C31.1228 37.3926 30.9861 37.5097 30.7615 37.9492C30.5076 38.4375 30.5174 38.8379 30.7908 39.3652C30.9959 39.7363 31.1521 39.8633 32.0213 40.332L33.0271 40.8691L33.3982 41.7773C33.8279 42.8222 33.8963 42.9199 34.3845 43.1738C35.0486 43.5058 35.7713 43.3593 36.2498 42.7929C36.3865 42.6269 36.6502 42.1191 36.826 41.6699L37.1482 40.8496L37.9783 40.4199C38.4275 40.1855 38.906 39.9121 39.033 39.8144C39.7166 39.2773 39.7459 38.0566 39.1013 37.4902C38.9939 37.4023 38.5154 37.1191 38.0174 36.8652L37.1287 36.3867L36.7771 35.498C36.1912 34.0332 35.4685 33.5937 34.4236 34.0722ZM35.4392 36.3574C35.6053 36.7773 35.8103 37.2265 35.8982 37.3535C35.9861 37.4804 36.4842 37.8125 37.0213 38.0859C37.5486 38.3593 37.9881 38.6035 37.9881 38.623C37.9881 38.6523 37.6267 38.8476 37.1873 39.0722C36.0935 39.6093 35.8299 39.8926 35.449 40.8789C35.2732 41.3281 35.0974 41.6797 35.0584 41.6504C35.0193 41.6308 34.8435 41.2304 34.6678 40.7715C34.2967 39.8047 34.1111 39.6191 32.9881 39.0527C32.5681 38.8476 32.2263 38.6523 32.2263 38.623C32.2263 38.5937 32.6072 38.3789 33.0857 38.1445C33.5545 37.9101 34.033 37.6074 34.1502 37.4804C34.3455 37.2754 34.5994 36.7383 34.9705 35.7519C35.0193 35.625 35.0779 35.5371 35.0974 35.5566C35.1267 35.5761 35.2732 35.9375 35.4392 36.3574Z" fill="white"/>
</svg>
