<svg width="50" height="50" viewBox="0 0 50 50" fill="none" xmlns="http://www.w3.org/2000/svg">
<rect width="50" height="50" rx="10" fill="#DF42B1"/>
<path d="M8.28125 5.99605C7.35352 6.24996 6.60156 7.00191 6.34766 7.91011C6.28906 8.11519 6.25 10.4199 6.25 13.6718C6.25 17.9004 6.2793 19.2968 6.39648 20.0195C6.8457 22.9785 8.56445 25.7031 11.0742 27.4316C11.7578 27.9004 13.418 28.6621 14.2578 28.8964C15.7227 29.2968 17.6367 29.3945 19.0723 29.1406L19.4336 29.0722L19.3652 29.4043C19.3164 29.5898 19.2871 30.4785 19.2969 31.3964C19.2969 32.8613 19.3262 33.164 19.5605 34.0039C20.5566 37.7148 23.4473 40.7031 27.0605 41.7382C28.3301 42.0996 29.3652 42.2265 30.7031 42.1582C35.3613 41.9433 39.4043 38.7207 40.6641 34.1992C40.8008 33.7304 41.4258 31.2011 42.0508 28.5742C43.1738 23.8964 43.1934 23.789 43.0859 23.2519C42.8711 22.2265 42.0898 21.3671 41.1328 21.0937C40.918 21.0351 39.2969 20.9961 37.1094 20.9961C34.3457 20.9961 33.291 20.957 32.8027 20.8593C32.3535 20.7617 31.5234 20.4004 30.166 19.707L28.1738 18.7011L28.125 13.2812C28.0762 7.92965 28.0762 7.85152 27.8613 7.4609C27.5195 6.81636 27.1777 6.47457 26.5918 6.19136C25.7227 5.76168 25.332 5.8105 21.5332 6.73824C17.0605 7.84175 17.3242 7.84175 12.8906 6.75777C11.0938 6.31832 9.42383 5.93746 9.17969 5.90816C8.93555 5.88863 8.53516 5.91793 8.28125 5.99605ZM12.5488 9.09175L15.8691 9.9023L17.2363 9.89254H18.6035L22.0117 9.05269C24.5312 8.43746 25.4688 8.24215 25.6055 8.3105C25.7715 8.3984 25.7812 8.6523 25.7812 12.9394V17.4707L25.4297 17.3242C24.9219 17.1093 23.9258 17.1289 23.4082 17.3632C22.8613 17.6074 22.3047 18.1054 22.0703 18.5546C21.9629 18.7597 21.7871 19.3164 21.6699 19.7851C21.5527 20.2636 21.4258 20.6933 21.377 20.7421C21.3281 20.791 21.123 20.6738 20.8887 20.4687C20.3613 19.9902 19.2969 19.4824 18.3789 19.2773C16.5723 18.8769 14.4434 19.4726 13.1348 20.7617C12.5977 21.2988 12.4414 21.6601 12.5488 22.1582C12.6367 22.5586 13.0957 22.9589 13.5352 23.0078C13.9648 23.0566 14.082 22.998 14.9023 22.3339C16.4258 21.1035 18.3301 21.2304 19.873 22.666C20.0391 22.8222 20.3223 22.9785 20.5176 23.0175L20.8594 23.0957L20.4688 24.7558C20 26.6699 20.0977 26.5625 18.7109 26.8066C17.6172 26.9921 16.7578 26.9921 15.6738 26.8066C12.1875 26.1914 9.35547 23.3593 8.74023 19.873C8.62305 19.1796 8.59375 18.0273 8.59375 13.7109C8.59375 8.75972 8.60352 8.3984 8.76953 8.3105C8.85742 8.25191 9.00391 8.23238 9.08203 8.25191C9.16016 8.27144 10.7227 8.6523 12.5488 9.09175ZM27.9688 21.2304C30.1758 22.3437 31.5332 22.9785 31.9824 23.0957C32.5684 23.2519 33.2324 23.2812 36.6504 23.3105C40.3516 23.3496 40.6348 23.3691 40.7227 23.5254C40.791 23.6523 40.498 25.0195 39.6387 28.5742C38.9941 31.25 38.3691 33.7109 38.2617 34.0332C37.7734 35.5175 36.748 36.9726 35.498 37.9589C31.9336 40.7812 26.9531 40.4004 23.8672 37.08C22.2461 35.332 21.5137 33.33 21.6113 30.9179C21.6504 29.8242 21.7383 29.3847 22.8418 24.8535C23.4863 22.1679 24.0625 19.873 24.1211 19.7461C24.1797 19.6191 24.2969 19.5312 24.4238 19.5312C24.541 19.5312 26.1328 20.2929 27.9688 21.2304Z" fill="white"/>
<path d="M12.6468 12.2461C11.6604 12.6757 11.4261 13.9843 12.1975 14.7558C13.2913 15.8593 15.0882 14.873 14.805 13.33C14.6292 12.4121 13.5257 11.8554 12.6468 12.2461Z" fill="white"/>
<path d="M20.4593 12.2461C19.4729 12.6757 19.2386 13.9843 20.01 14.7558C21.1038 15.8593 22.9007 14.873 22.6175 13.33C22.4417 12.4121 21.3382 11.8554 20.4593 12.2461Z" fill="white"/>
<path d="M26.8555 24.5312C26.2305 24.8535 26.0254 25.1855 26.0254 25.8789C26.0254 26.4941 26.1816 26.8066 26.6992 27.1875C27.0801 27.4707 27.998 27.4707 28.3789 27.1875C29.082 26.6699 29.2676 25.9375 28.8867 25.1953C28.6426 24.7266 28.0176 24.3164 27.5391 24.3164C27.4023 24.3164 27.0898 24.4141 26.8555 24.5312Z" fill="white"/>
<path d="M34.3749 26.3672C33.8574 26.6797 33.6621 27.0215 33.6132 27.6367C33.5839 28.0761 33.6132 28.2324 33.8085 28.5058C34.3164 29.2578 35.0292 29.4726 35.7812 29.1113C36.8456 28.5937 36.9824 27.1386 36.0253 26.4551C35.5761 26.1426 34.8242 26.1035 34.3749 26.3672Z" fill="white"/>
<path d="M25.733 31.6309C25.401 31.7773 25.0885 32.1777 25.0299 32.5488C24.9518 33.0664 25.3131 33.7109 26.1725 34.5703C27.3737 35.791 28.6627 36.3281 30.3717 36.3281C31.6998 36.3281 33.194 35.8301 33.819 35.1758C34.5221 34.4434 34.024 33.2031 33.0182 33.2031C32.8619 33.2031 32.4127 33.3691 32.0221 33.5645C31.3483 33.9258 31.2897 33.9355 30.3326 33.9355C29.4537 33.9355 29.2877 33.9063 28.7897 33.6621C28.2623 33.4082 28.0768 33.2227 27.0026 31.9727C26.778 31.709 26.6119 31.6211 26.319 31.5918C26.1041 31.5625 25.8405 31.582 25.733 31.6309Z" fill="white"/>
<path d="M32.7637 11.0254C32.6562 11.0742 32.4609 11.2305 32.3242 11.377L32.0801 11.6406V14.2676V16.8945L32.4023 17.207C32.6758 17.4805 32.7832 17.5293 33.2031 17.5293C33.623 17.5293 33.7305 17.4805 34.0039 17.207L34.3262 16.8945V14.2578V11.6211L34.0234 11.3184C33.7012 10.9961 33.125 10.8691 32.7637 11.0254Z" fill="white"/>
<path d="M40.3809 12.9785C40.2734 13.0273 39.502 13.7598 38.6719 14.5898L37.1582 16.1133V16.6016C37.1582 17.0215 37.207 17.1289 37.4805 17.4023C37.7539 17.6758 37.8613 17.7246 38.2812 17.7246H38.7695L40.3516 16.1328L41.9434 14.5508V14.0625C41.9434 13.6523 41.8945 13.5352 41.6406 13.2715C41.3184 12.9492 40.7422 12.8223 40.3809 12.9785Z" fill="white"/>
<path d="M10.8887 32.1191C10.459 32.3047 10.2051 32.7051 10.2051 33.2129C10.2051 33.623 10.2539 33.7305 10.5273 34.0039L10.8398 34.3262H13.4766H16.1133L16.4258 34.0039C16.6992 33.7305 16.748 33.623 16.748 33.2031C16.748 32.7832 16.6992 32.6758 16.4258 32.4023L16.1133 32.0801L13.5938 32.0605C12.2168 32.0508 10.9961 32.0801 10.8887 32.1191Z" fill="white"/>
<path d="M15.3809 37.1973C15.2734 37.2461 14.502 37.9785 13.6719 38.8086L12.1582 40.332V40.8203C12.1582 41.2402 12.207 41.3477 12.4805 41.6211C12.7539 41.8945 12.8613 41.9434 13.2812 41.9434H13.7695L15.3516 40.3516L16.9434 38.7695V38.2812C16.9434 37.8711 16.8945 37.7539 16.6406 37.4902C16.3184 37.168 15.7422 37.041 15.3809 37.1973Z" fill="white"/>
</svg>
