<svg width="50" height="50" viewBox="0 0 50 50" fill="none" xmlns="http://www.w3.org/2000/svg">
<rect width="50" height="50" rx="10" fill="#5B58D9"/>
<path d="M27.8613 6.11328C27.4414 6.32812 27.3242 6.47461 26.7773 7.48047L26.3086 8.34961L25.4004 8.83789C24.2383 9.45312 23.9746 9.77539 23.9746 10.5469C23.9746 11.3086 24.2383 11.6309 25.3906 12.2559L26.3086 12.7539L26.8066 13.6719C27.4316 14.8242 27.7539 15.0879 28.5156 15.0879C29.2773 15.0879 29.5996 14.8242 30.2246 13.6719L30.7227 12.7539L31.6406 12.2559C32.793 11.6309 33.0566 11.3086 33.0566 10.5469C33.0566 9.78516 32.793 9.46289 31.6406 8.83789L30.7227 8.33984L30.2246 7.42188C29.9414 6.9043 29.5898 6.40625 29.4141 6.26953C29.0137 5.95703 28.3008 5.88867 27.8613 6.11328ZM29.0234 8.47656C29.2773 8.94531 29.5605 9.4043 29.6582 9.49219C29.7559 9.57031 30.1953 9.83398 30.6348 10.0684C31.084 10.3027 31.4453 10.5176 31.4453 10.5469C31.4453 10.5762 31.084 10.791 30.6348 11.0254C30.1953 11.2598 29.7559 11.5234 29.6582 11.6016C29.5605 11.6895 29.2773 12.1484 29.0234 12.6172C28.7695 13.0859 28.5449 13.4766 28.5156 13.4766C28.4863 13.4766 28.252 13.0859 27.998 12.5977C27.4805 11.6211 27.3828 11.5332 26.3379 10.9863C25.9277 10.7715 25.5859 10.5762 25.5859 10.5469C25.5859 10.5176 25.9277 10.3223 26.3379 10.1074C27.3828 9.56055 27.4805 9.47266 27.998 8.49609C28.252 8.00781 28.4863 7.61719 28.5156 7.61719C28.5449 7.61719 28.7695 8.00781 29.0234 8.47656Z" fill="white"/>
<path d="M11.5228 8.8476C10.7123 9.06245 10.1947 9.41401 9.16928 10.4492C8.13413 11.4843 7.78256 12.08 7.59702 13.0761C7.4603 13.8085 7.57748 14.6386 7.90952 15.3808C8.09506 15.7812 10.097 17.832 19.472 27.2265C25.7123 33.4765 30.9857 38.6914 31.2005 38.8183C31.4154 38.9453 33.1732 39.6581 35.1068 40.3906C38.8568 41.8261 39.2083 41.914 39.804 41.5624C39.9603 41.4648 40.2044 41.2304 40.3314 41.0449C40.7611 40.4101 40.7025 40.1464 39.2181 36.2792C38.4857 34.3456 37.7728 32.5878 37.6458 32.373C37.5189 32.1581 32.304 26.8847 26.054 20.6445C16.9818 11.582 14.6087 9.26752 14.2376 9.10151C13.3001 8.67182 12.4603 8.5937 11.5228 8.8476ZM13.3392 10.4199C13.7103 10.5468 14.0423 10.8007 14.8431 11.582L15.8685 12.5878L13.6419 14.8144L11.4154 17.041L10.4095 16.0156C9.57944 15.166 9.37436 14.8925 9.22788 14.4628C9.03256 13.8671 9.07163 13.1933 9.3353 12.6757C9.52084 12.3242 10.722 11.0351 11.1712 10.7128C11.8255 10.2441 12.5482 10.1464 13.3392 10.4199ZM26.4642 23.1933L35.888 32.6171L33.6615 34.8339L31.4447 37.0605L22.0208 27.6367C16.8353 22.4511 12.597 18.1738 12.597 18.1152C12.597 17.9882 16.8158 13.7695 16.9427 13.7695C16.9915 13.7695 21.2787 18.0078 26.4642 23.1933ZM37.89 37.1972C38.4857 38.7695 38.9544 40.0781 38.9349 40.0976C38.9154 40.1269 37.5872 39.6484 35.9955 39.0429L33.0951 37.9492L34.931 36.1132C35.9369 35.1074 36.7669 34.2968 36.7767 34.3066C36.7865 34.3164 37.2845 35.6152 37.89 37.1972Z" fill="white"/>
<path d="M37.2559 15.0879C36.7773 15.3516 36.6699 15.4785 36.0254 16.6895L35.4102 17.8516L34.248 18.4668C32.8223 19.2187 32.5684 19.502 32.5684 20.3125C32.5684 21.123 32.8223 21.4062 34.248 22.1582L35.4102 22.7734L36.0352 23.9453C36.7969 25.3809 37.0801 25.6348 37.8906 25.6348C38.7012 25.6348 38.9844 25.3809 39.7461 23.9453L40.3711 22.7832L41.5234 22.1777C42.9492 21.4258 43.2129 21.1328 43.2129 20.3125C43.2129 19.4922 42.9492 19.1992 41.5234 18.4473L40.3711 17.8418L39.7461 16.6797C39.3359 15.918 39.0039 15.4199 38.7988 15.2539C38.3789 14.9414 37.6758 14.8633 37.2559 15.0879ZM38.4668 17.6074C38.7598 18.1543 39.1113 18.7305 39.248 18.877C39.3848 19.0234 39.9707 19.4043 40.5469 19.707C41.1328 20.0098 41.6016 20.2832 41.6016 20.3125C41.6016 20.3418 41.1523 20.5957 40.5957 20.8887C40.0488 21.1816 39.4727 21.5332 39.3262 21.6699C39.1797 21.8066 38.7988 22.3926 38.4961 22.9687C38.1934 23.5547 37.9199 24.0234 37.8906 24.0234C37.8613 24.0234 37.5879 23.5547 37.2852 22.9687C36.9824 22.3926 36.6016 21.8066 36.4551 21.6699C36.3086 21.5234 35.7324 21.1719 35.1855 20.8887C34.6289 20.5957 34.1797 20.3418 34.1797 20.3125C34.1797 20.2832 34.6289 20.0293 35.1855 19.7363C35.7324 19.4531 36.3086 19.1016 36.4551 18.9551C36.6016 18.8184 36.9824 18.2324 37.2852 17.6562C37.5879 17.0703 37.8613 16.6016 37.8906 16.6016C37.9199 16.6016 38.1738 17.0508 38.4668 17.6074Z" fill="white"/>
<path d="M13.4082 29.1602C12.9492 29.3848 12.8613 29.5215 11.9824 31.1621L11.1816 32.666L9.62891 33.4961C7.79297 34.4824 7.56836 34.6973 7.56836 35.5469C7.56836 36.3965 7.79297 36.6113 9.62891 37.5977L11.1816 38.4277L12.0117 39.9805C12.998 41.8262 13.2129 42.041 14.0625 42.041C14.9121 42.041 15.127 41.8262 16.1133 39.9805L16.9434 38.4277L18.457 37.627C20.3027 36.6504 20.5566 36.3965 20.5566 35.5469C20.5566 34.6973 20.3027 34.4434 18.457 33.4668L16.9434 32.666L16.1133 31.1133C15.5566 30.0684 15.1758 29.4824 14.9609 29.3164C14.5605 29.0039 13.8477 28.9355 13.4082 29.1602ZM14.8438 32.0508C15.2441 32.8125 15.6738 33.5547 15.791 33.6914C15.8984 33.8281 16.6602 34.2871 17.4707 34.7168C18.2812 35.1465 18.9453 35.5176 18.9453 35.5469C18.9453 35.5762 18.2812 35.9473 17.4707 36.377C16.6602 36.8066 15.8984 37.2656 15.791 37.4023C15.6738 37.5391 15.2441 38.2812 14.8438 39.043C14.4434 39.8047 14.0918 40.4297 14.0625 40.4297C14.0332 40.4297 13.6816 39.8047 13.2812 39.043C12.8809 38.2812 12.4512 37.5391 12.3438 37.4023C12.2266 37.2656 11.4648 36.8066 10.6543 36.377C9.84375 35.9473 9.17969 35.5762 9.17969 35.5469C9.17969 35.5176 9.84375 35.1465 10.6543 34.7168C11.4648 34.2871 12.2266 33.8281 12.3438 33.6914C12.4512 33.5547 12.8809 32.8125 13.2812 32.0508C13.6816 31.2891 14.0332 30.6641 14.0625 30.6641C14.0918 30.6641 14.4434 31.2891 14.8438 32.0508Z" fill="white"/>
</svg>
