<svg width="50" height="50" viewBox="0 0 50 50" fill="none" xmlns="http://www.w3.org/2000/svg">
<rect width="50" height="50" rx="10" fill="#5B58D9"/>
<path d="M12.3535 8.83789C12.1094 9.07227 12.1094 9.10156 12.1094 10.7715V12.4707L11.0547 12.5195C10.127 12.5586 9.92188 12.5977 9.35547 12.8613C8.45703 13.2812 7.88086 13.8379 7.44141 14.7266L7.08008 15.4688V26.9531V38.4375L7.44141 39.1797C7.88086 40.0684 8.44727 40.6152 9.35547 41.0449L10.0098 41.3574H25.0098H40L40.7422 40.9961C41.6309 40.5566 42.1777 39.9902 42.6074 39.082L42.9199 38.4277V26.9531V15.4785L42.6074 14.8242C42.1777 13.916 41.6309 13.3496 40.7422 12.9199C40.0391 12.5684 39.9707 12.5586 38.7598 12.5195L37.5 12.4805V10.7715C37.5 9.10156 37.5 9.07227 37.2559 8.83789C36.9434 8.51562 36.4941 8.51562 36.1816 8.83789C35.9375 9.07227 35.9375 9.10156 35.9375 10.791V12.5H32.8711H29.8047L29.5117 11.9824C29.0527 11.1719 27.334 9.33594 26.8652 9.14062C26.2793 8.90625 24.8047 8.92578 24.0137 9.17969C22.6758 9.59961 21.7676 10.6738 21.5332 12.1289L21.4746 12.5H17.5781H13.6719V10.791C13.6719 9.10156 13.6719 9.07227 13.4277 8.83789C13.2812 8.68164 13.0762 8.59375 12.8906 8.59375C12.7051 8.59375 12.5 8.68164 12.3535 8.83789ZM27.2168 11.5723L28.1055 12.6074L30.4297 17.2656L32.7539 21.9238L32.7637 22.666C32.7637 23.3203 32.7344 23.457 32.4707 23.8867C32.2852 24.1797 31.9922 24.4727 31.6992 24.6582L31.2207 24.9512L24.834 24.9805L18.457 25.0098L18.2129 24.7656L17.9688 24.5215V21.3965V18.2812L18.2617 18.2129C18.9941 18.0566 19.8145 18.4375 20.4102 19.209C20.5957 19.4531 20.8887 19.7168 21.0742 19.7949C21.3672 19.9121 21.4453 19.9023 22.0508 19.6387C23.7988 18.877 25.3223 19.0918 26.6992 20.293C27.2461 20.7715 27.4121 20.8496 27.8809 20.8105C28.1641 20.7812 28.6133 20.2539 28.6133 19.9414C28.6133 19.5996 27.207 15.6543 26.9727 15.3418C26.5625 14.7852 26.3379 14.6973 25.0684 14.6484C24.1504 14.6094 23.8184 14.5508 23.6133 14.4238C22.8516 13.9062 22.8516 12.0801 23.623 11.2207C24.0723 10.7227 24.5508 10.5566 25.5371 10.5469H26.3184L27.2168 11.5723ZM12.1094 15.3809C12.1094 16.6602 12.1191 16.7188 12.3535 16.9434C12.666 17.2656 13.1152 17.2656 13.4277 16.9434C13.6621 16.7188 13.6719 16.6602 13.6719 15.3809V14.0625H17.627H21.5723L21.7871 14.5508C22.0703 15.2051 22.8125 15.8691 23.4668 16.0645C23.75 16.1426 24.3457 16.2109 24.8438 16.2109H25.7324L26.0547 17.1191C26.2207 17.627 26.3672 18.0664 26.3672 18.0957C26.3672 18.1348 26.1523 18.0762 25.8984 17.9785C24.7656 17.5293 23.3789 17.5195 22.0898 17.9297L21.5918 18.0957L21.0449 17.5977C20.3223 16.9336 19.6191 16.6699 18.6035 16.6699C17.6172 16.6699 16.9434 16.9043 16.6309 17.373C16.4062 17.7051 16.4062 17.7246 16.4062 21.123C16.4062 23.5156 16.4453 24.6582 16.5234 24.9414C16.6895 25.5078 17.4902 26.2891 18.0664 26.4453C18.3984 26.543 20.0586 26.5625 24.9512 26.543L31.3965 26.5137L31.9629 26.2891C32.7539 25.9668 33.6035 25.1562 34.0039 24.3359C34.3066 23.7207 34.3262 23.623 34.3262 22.6367V21.5918L32.4512 17.832L30.5664 14.0625H33.252H35.9375V15.3809C35.9375 16.6602 35.9473 16.7188 36.1816 16.9434C36.3281 17.0996 36.5332 17.1875 36.7188 17.1875C36.9043 17.1875 37.1094 17.0996 37.2559 16.9434C37.4902 16.7188 37.5 16.6602 37.5 15.3809V14.0625H38.4375C38.9551 14.0625 39.5605 14.1113 39.7852 14.1797C40.3223 14.3359 41.1328 15.1465 41.2891 15.6836C41.4551 16.2695 41.4551 37.6367 41.2891 38.2227C41.1328 38.7598 40.3223 39.5703 39.7852 39.7266C39.1992 39.8926 10.8008 39.8926 10.2148 39.7266C9.67773 39.5703 8.86719 38.7598 8.71094 38.2227C8.54492 37.6367 8.54492 16.2695 8.71094 15.6836C8.85742 15.1855 9.67773 14.3457 10.1562 14.1895C10.3418 14.1309 10.8594 14.082 11.3086 14.0723L12.1094 14.0625V15.3809Z" fill="white"/>
<path d="M14.4531 30.2051C13.9746 30.3613 13.1543 31.2012 13.0078 31.6992C12.9395 31.9238 12.8906 32.5976 12.8906 33.2031C12.8906 33.8086 12.9395 34.4824 13.0078 34.707C13.1641 35.2441 13.9746 36.0547 14.5117 36.2109C15.1074 36.3867 17.0508 36.3672 17.6074 36.1719C18.1641 35.9863 18.8574 35.2637 19.0234 34.6875C19.1699 34.1894 19.1699 32.2168 19.0234 31.7187C18.8574 31.1426 18.1641 30.4199 17.6074 30.2344C17.0703 30.0488 15 30.0293 14.4531 30.2051ZM17.334 31.8848C17.5684 32.1094 17.5781 32.1875 17.5781 33.2031C17.5781 34.2187 17.5684 34.2969 17.334 34.5215C17.1094 34.7558 17.0312 34.7656 16.0156 34.7656C15 34.7656 14.9219 34.7558 14.6973 34.5215C14.4629 34.2969 14.4531 34.2187 14.4531 33.2031C14.4531 32.1875 14.4629 32.1094 14.6973 31.8848C14.9219 31.6504 15 31.6406 16.0156 31.6406C17.0312 31.6406 17.1094 31.6504 17.334 31.8848Z" fill="white"/>
<path d="M23.8281 30.2051C23.3496 30.3613 22.5293 31.2012 22.3828 31.6992C22.3145 31.9238 22.2656 32.5976 22.2656 33.2031C22.2656 33.8086 22.3145 34.4824 22.3828 34.707C22.5391 35.2441 23.3496 36.0547 23.8867 36.2109C24.4824 36.3867 26.4258 36.3672 26.9824 36.1719C27.5391 35.9863 28.2324 35.2637 28.3984 34.6875C28.5449 34.1894 28.5449 32.2168 28.3984 31.7187C28.2324 31.1426 27.5391 30.4199 26.9824 30.2344C26.4453 30.0488 24.375 30.0293 23.8281 30.2051ZM26.709 31.8848C26.9434 32.1094 26.9531 32.1875 26.9531 33.2031C26.9531 34.2187 26.9434 34.2969 26.709 34.5215C26.4844 34.7558 26.4062 34.7656 25.3906 34.7656C24.375 34.7656 24.2969 34.7558 24.0723 34.5215C23.8379 34.2969 23.8281 34.2187 23.8281 33.2031C23.8281 32.1875 23.8379 32.1094 24.0723 31.8848C24.2969 31.6504 24.375 31.6406 25.3906 31.6406C26.4062 31.6406 26.4844 31.6504 26.709 31.8848Z" fill="white"/>
<path d="M31.4932 30.7129C31.044 31.1523 31.1416 31.4648 32.0498 32.3828L32.8506 33.2031L32.0498 34.0234C31.1416 34.9414 31.044 35.2539 31.4932 35.6933C31.9326 36.1426 32.2451 36.0449 33.1631 35.1367L33.9834 34.3359L34.8037 35.1367C35.7217 36.0449 36.0342 36.1426 36.4736 35.6933C36.9229 35.2539 36.8252 34.9414 35.917 34.0234L35.1162 33.2031L35.917 32.3828C36.8252 31.4648 36.9229 31.1523 36.4736 30.7129C36.0342 30.2637 35.7217 30.3613 34.8037 31.2695L33.9834 32.0703L33.1631 31.2695C32.2451 30.3613 31.9326 30.2637 31.4932 30.7129Z" fill="white"/>
</svg>
