<svg width="50" height="50" viewBox="0 0 50 50" fill="none" xmlns="http://www.w3.org/2000/svg">
<rect width="50" height="50" rx="10" fill="#DF42B1"/>
<path d="M23.5547 4.05269C22.2949 4.33589 21.0938 5.09761 20.3418 6.10347C19.7559 6.87495 19.5605 7.29487 19.3262 8.17378C19.0918 9.11128 19.0918 9.72651 19.3262 10.1855L19.5117 10.5468H19.1699C18.457 10.5468 18.0957 11.3671 18.6035 11.8652C18.7988 12.0703 18.9355 12.1093 19.3848 12.1093H19.9219V12.5683C19.9316 13.75 20.4785 15.0683 21.3672 16.0253C21.8359 16.5429 21.875 16.6113 21.875 17.0605V17.5488L21.0254 17.6074C18.0762 17.8125 15.5469 19.5605 14.3555 22.207C13.8184 23.4082 13.7402 23.8769 13.7012 26.4941L13.6523 28.9062H12.9199C11.875 28.9062 11.4648 29.0527 10.8887 29.6386C10.2539 30.2734 10.1562 30.6054 10.1562 32.2265C10.1562 33.8476 10.2539 34.1796 10.8887 34.8144C11.4648 35.4003 11.875 35.5468 12.9297 35.5468H13.6719V39.8046C13.6719 42.871 13.7012 44.1796 13.7891 44.4726C13.9453 45.0097 14.7559 45.8203 15.293 45.9765C15.5957 46.0644 17.9883 46.0937 25.0195 46.0937C35.5957 46.0937 34.9316 46.1425 35.6738 45.3124C35.9082 45.0585 36.1523 44.6679 36.2109 44.4531C36.2988 44.1796 36.3281 42.8222 36.3281 39.8046V35.5468H37.0898C38.1348 35.5468 38.6621 35.3515 39.1895 34.7656C39.7461 34.1503 39.8438 33.7695 39.8438 32.2265C39.8438 30.6835 39.7461 30.3027 39.1895 29.6874C38.6621 29.1015 38.1348 28.9062 37.0996 28.9062H36.3477L36.3086 26.4941C36.2598 23.9746 36.2207 23.7304 35.7422 22.4414C35.625 22.1289 35.3223 21.5527 35.0586 21.1621C33.6914 19.0527 31.5137 17.7832 28.9844 17.6074L28.125 17.5488V17.0605C28.125 16.6113 28.1641 16.5429 28.6426 16.0253C29.5215 15.0683 30.0684 13.75 30.0781 12.5683V12.1093H30.6152C31.0645 12.1093 31.2012 12.0703 31.3965 11.8652C31.9043 11.3671 31.543 10.5468 30.8301 10.5468H30.4883L30.6836 10.1757C30.8398 9.88276 30.8691 9.68745 30.8203 9.13081C30.6445 6.85542 29.0918 4.86324 26.9629 4.18941C26.123 3.92574 24.4141 3.85738 23.5547 4.05269ZM26.6797 5.75191C28.0273 6.26949 29.0234 7.51948 29.2578 8.98433L29.3262 9.37495H25.0098C20.0781 9.37495 20.5566 9.49214 20.8984 8.37886C21.3281 6.98237 22.3242 6.01558 23.7598 5.61519C24.4824 5.41011 25.957 5.47847 26.6797 5.75191ZM28.4961 12.1289C28.4668 13.1933 28.4277 13.3984 28.1836 13.9257C27.8516 14.6777 27.1777 15.332 26.416 15.6933C25.918 15.9277 25.7031 15.9667 25 15.9667C24.2969 15.9667 24.082 15.9277 23.5742 15.6933C22.8223 15.3417 22.1582 14.6777 21.8066 13.916C21.5723 13.3984 21.5332 13.1933 21.5039 12.1289L21.4648 10.9375H25H28.5352L28.4961 12.1289ZM25 17.5292C25.4004 17.5292 25.9277 17.4902 26.1621 17.4414L26.582 17.3632L26.5527 18.1445C26.5137 18.9941 26.377 19.2675 25.8398 19.6679C25.459 19.9511 24.541 19.9511 24.1602 19.6679C23.623 19.2675 23.4863 18.9941 23.4473 18.1445L23.418 17.3632L23.8379 17.4414C24.0723 17.4902 24.5996 17.5292 25 17.5292ZM22.1973 19.6582C22.5 20.3222 23.0371 20.8593 23.7012 21.1621L24.2188 21.3964V25.1562V28.9062H19.7266H15.2344V26.8261C15.2344 24.3847 15.3418 23.7597 15.9277 22.5585C16.9238 20.5566 19.1113 19.1796 21.3574 19.1503L21.9629 19.1406L22.1973 19.6582ZM29.834 19.2871C31.6016 19.6582 33.2422 20.9277 34.0625 22.5585C34.6582 23.7499 34.7656 24.3749 34.7656 26.8261V28.9062H33.3008H31.8359V26.8554C31.8359 24.3847 31.8652 24.4628 30.5371 23.164C29.502 22.1582 29.209 22.0507 28.7598 22.5097C28.3008 22.9589 28.4082 23.2519 29.3945 24.2578L30.2734 25.1562V27.0312V28.9062H28.0273H25.7812V25.1464V21.3867L26.0547 21.289C26.8359 21.0058 27.4512 20.4296 27.8027 19.6679L28.0371 19.1406H28.5938C28.8965 19.1406 29.4629 19.2089 29.834 19.2871ZM38.0371 30.7128C38.2715 30.9374 38.2812 30.996 38.2812 32.2265C38.2812 33.457 38.2715 33.5156 38.0371 33.7402L37.8027 33.9843H25H12.1973L11.9629 33.7402C11.7285 33.5156 11.7188 33.457 11.7188 32.2265C11.7188 30.996 11.7285 30.9374 11.9629 30.7128L12.1973 30.4687H25H37.8027L38.0371 30.7128ZM34.7656 39.7949V44.0527L34.5215 44.2871C34.3066 44.5117 34.209 44.5312 33.3789 44.5312H32.4609L32.2949 43.6425C31.9922 42.0312 31.3281 40.7812 30.166 39.6484C28.7695 38.2812 27.0508 37.5976 25 37.5976C22.9492 37.5976 21.2109 38.291 19.834 39.6484C18.6719 40.791 18.0078 42.0312 17.7051 43.6425L17.5391 44.5312H16.6211C15.791 44.5312 15.6934 44.5117 15.4785 44.2871L15.2344 44.0527V39.7949V35.5468H25H34.7656V39.7949ZM25.9375 39.2089C28.5156 39.6484 30.3809 41.5429 30.8105 44.1601L30.8691 44.5312H25C20.166 44.5312 19.1406 44.5117 19.1406 44.4042C19.1406 44.0429 19.5605 42.6953 19.8438 42.1582C20.5859 40.7324 22.2949 39.5117 23.9746 39.2187C24.9902 39.0429 24.9316 39.0429 25.9375 39.2089Z" fill="white"/>
</svg>
