<svg width="50" height="50" viewBox="0 0 50 50" fill="none" xmlns="http://www.w3.org/2000/svg">
<rect width="50" height="50" rx="10" fill="#5B58D9"/>
<path d="M24.2188 7.54883C23.7402 7.70508 22.9199 8.54492 22.7734 9.04297C22.6855 9.3457 22.6562 11.4746 22.6562 17.5488V25.6543L22.4219 25.8691C22.2852 25.9961 22.1387 26.2109 22.0801 26.3477C21.9531 26.6602 21.582 28.7305 21.582 29.1016C21.582 29.248 21.3867 29.707 21.1426 30.1367C20.5371 31.1914 20.3711 31.7871 20.4395 32.7051C20.5078 33.623 20.9863 34.6484 21.6211 35.2344L22.041 35.625L21.7871 35.8203C21.6406 35.9277 21.3281 36.1133 21.0938 36.2305C20.8496 36.3574 20.4785 36.5723 20.2539 36.7285L19.8535 37.002L19.5215 36.6602C19.3359 36.4746 18.8672 36.1523 18.4766 35.957C17.8027 35.625 17.6855 35.6055 16.6211 35.5664C15.6348 35.5273 15.5176 35.5078 15.6836 35.3906C16.1621 35.0488 16.6504 34.4727 16.8848 33.9844L17.1387 33.4473L17.1289 30.0684C17.1094 26.2891 17.0996 26.2109 16.4258 25.7031L16.084 25.4395H13.8672H11.6504L11.3086 25.7031C10.6348 26.2109 10.625 26.2891 10.6055 30.0684L10.5957 33.4473L10.8594 33.9844C11.1328 34.541 11.3672 34.834 11.8848 35.2637L12.1973 35.5273L11.0938 35.5664C10.127 35.6055 9.93164 35.6445 9.35547 35.9082C8.45703 36.3281 7.88086 36.8848 7.44141 37.7734L7.08008 38.5156V40.4395C7.08008 42.5586 7.09961 42.6172 7.75391 43.1055L8.01758 43.3105H25H41.9824L42.2461 43.1055C42.9004 42.6172 42.9199 42.5586 42.9199 40.4395V38.5156L42.5586 37.7734C42.1191 36.8848 41.543 36.3281 40.6445 35.9082C40.0684 35.6348 39.873 35.6055 38.877 35.5664C37.9004 35.5273 37.7832 35.5078 37.9492 35.3906C38.4277 35.0488 38.916 34.4727 39.1504 33.9844L39.4043 33.4473L39.3945 30.0684C39.375 26.2891 39.3652 26.2109 38.6914 25.7031L38.3496 25.4395H36.1328H33.916L33.5742 25.7031C32.9004 26.2109 32.8906 26.2891 32.8711 30.0684L32.8613 33.4473L33.125 33.9844C33.3984 34.541 33.6328 34.834 34.1504 35.2637L34.4629 35.5273L33.3496 35.5664C32.3145 35.6055 32.1973 35.6348 31.5234 35.957C31.1328 36.1523 30.6641 36.4746 30.4785 36.6602L30.1465 37.002L29.7461 36.7285C29.5215 36.5723 29.1504 36.3574 28.9062 36.2305C28.6719 36.1133 28.3496 35.918 28.2031 35.8105L27.9297 35.6152L28.4277 35.0879C28.6914 34.8047 29.0332 34.3164 29.1797 34.0137C29.4141 33.5156 29.4434 33.3301 29.4434 32.4023V31.3672L28.9355 30.3516C28.5547 29.5801 28.418 29.1992 28.3691 28.7109C28.2617 27.6465 27.959 26.3574 27.7637 26.0938C27.3145 25.498 27.1484 25.4395 25.625 25.4102L24.2188 25.3809V22.0605V18.75H26.5625H28.9062V19.6875C28.9062 20.2051 28.9551 20.8008 29.0234 21.0059C29.1797 21.543 29.7363 22.1582 30.3125 22.4219C30.8105 22.6562 30.8398 22.6562 34.3359 22.6562C38.418 22.6562 38.4961 22.6465 39.1895 21.875C39.4238 21.6211 39.668 21.2305 39.7266 21.0156C39.8047 20.752 39.8438 19.4727 39.8438 16.7969C39.8438 14.1211 39.8047 12.8418 39.7266 12.5781C39.668 12.3633 39.4238 11.9727 39.1895 11.7188C38.5645 11.0254 38.2227 10.9375 36.1133 10.9375H34.375V10.1953C34.375 9.20898 34.2285 8.76953 33.7207 8.20312C33.0176 7.42188 32.998 7.42188 28.4766 7.43164C25.918 7.44141 24.4434 7.48047 24.2188 7.54883ZM32.5684 9.22852C32.8027 9.46289 32.8125 9.50195 32.8125 10.9863V12.5H28.5156H24.2188V10.9863C24.2188 9.50195 24.2285 9.46289 24.4629 9.22852L24.6973 8.98438H28.5156H32.334L32.5684 9.22852ZM38.0371 12.7441C38.2715 12.9785 38.2812 13.0176 38.2812 14.502V16.0156H36.3281H34.375V14.2578V12.5H36.084C37.7734 12.5 37.8027 12.5 38.0371 12.7441ZM32.8125 15.3809C32.8125 16.6602 32.8027 16.7188 32.5684 16.9434L32.334 17.1875H28.2715H24.2188V15.625V14.0625H28.5156H32.8125V15.3809ZM38.2812 19.0918C38.2812 20.5762 38.2715 20.6152 38.0371 20.8496L37.8027 21.0938H34.8926H31.9824L33.0273 20.0391C34.1016 18.9648 34.375 18.5352 34.375 17.9199V17.5781H36.3281H38.2812V19.0918ZM32.0312 18.7793C32.0312 18.7891 31.6797 19.1504 31.25 19.5801L30.4688 20.3613V19.5508V18.75H31.25C31.6797 18.75 32.0312 18.7598 32.0312 18.7793ZM15.5273 27.6074C15.5273 27.9785 15.5566 28.5059 15.5859 28.7793L15.6543 29.2969H13.8672H12.0801L12.1484 28.7793C12.1777 28.5059 12.207 27.9785 12.207 27.6074V26.9531H13.8672H15.5273V27.6074ZM26.6309 27.832C26.6895 28.291 26.7676 28.8086 26.7969 28.9746L26.8457 29.2969H24.9902C23.2715 29.2969 23.1348 29.2871 23.1836 29.1211C23.2031 29.0332 23.2812 28.5547 23.3398 28.0762C23.3984 27.5879 23.4668 27.1387 23.4863 27.0703C23.5254 26.9727 23.877 26.9531 25.0195 26.9727L26.5137 27.002L26.6309 27.832ZM37.793 27.6074C37.793 27.9785 37.8223 28.5059 37.8516 28.7793L37.9199 29.2969H36.1328H34.3457L34.4141 28.7793C34.4434 28.5059 34.4727 27.9785 34.4727 27.6074V26.9531H36.1328H37.793V27.6074ZM15.625 31.9141C15.625 32.8125 15.5957 33.0273 15.4102 33.3984C14.7559 34.6875 12.9785 34.6875 12.334 33.3984C12.1387 33.0273 12.1094 32.8125 12.1094 31.9141V30.8594H13.8672H15.625V31.9141ZM26.9336 32.3535C26.9043 33.7891 26.8945 33.8672 26.6406 34.248C26.2402 34.8535 25.7617 35.1074 25 35.1074C24.2383 35.1074 23.7598 34.8535 23.3594 34.248C23.1055 33.8672 23.0957 33.7891 23.0664 32.3535L23.0273 30.8594H25H26.9727L26.9336 32.3535ZM37.8906 31.9141C37.8906 32.8125 37.8613 33.0273 37.6758 33.3984C37.0215 34.6875 35.2441 34.6875 34.5996 33.3984C34.4043 33.0273 34.375 32.8125 34.375 31.9141V30.8594H36.1328H37.8906V31.9141ZM26.748 37.168C26.8066 37.2168 25.0879 40.7227 25 40.7227C24.9414 40.7227 23.2422 37.3438 23.2422 37.207C23.2422 37.1582 23.4766 37.0996 23.7598 37.0801C24.3652 37.0215 26.6797 37.0898 26.748 37.168ZM14.4629 38.8184C14.0527 39.7559 13.7012 40.5273 13.6719 40.5273C13.6426 40.5273 13.291 39.7559 12.8809 38.8184L12.1289 37.1094H13.6719H15.2148L14.4629 38.8184ZM17.8125 37.3535C17.9883 37.4414 18.2715 37.6562 18.4473 37.832L18.7598 38.1543L18.3691 38.877C17.9297 39.6973 17.7148 40.3711 17.6172 41.2109L17.5488 41.7969H16.2012H14.8535L15.3027 40.8398C15.7422 39.9023 16.5527 38.0469 16.7969 37.4219C16.9141 37.1289 16.9531 37.0996 17.207 37.1484C17.3633 37.1777 17.6367 37.2754 17.8125 37.3535ZM33.252 37.5684C33.3496 37.832 33.8086 38.8867 34.2773 39.9121L35.1367 41.7969H33.7891H32.4512L32.3828 41.2109C32.2852 40.3711 32.0703 39.6973 31.6211 38.8672L31.2305 38.1348L31.6699 37.7344C32.0801 37.373 32.5293 37.1484 32.9199 37.1191C33.0273 37.1094 33.1445 37.2754 33.252 37.5684ZM37.1191 38.8184C36.709 39.7559 36.3574 40.5273 36.3281 40.5273C36.2988 40.5273 35.9473 39.7559 35.5371 38.8184L34.7852 37.1094H36.3281H37.8711L37.1191 38.8184ZM10.5957 37.5195C10.6738 37.6953 11.1328 38.7305 11.6113 39.8145L12.4805 41.7969H10.5371H8.59375V40.4688C8.59375 39.7266 8.64258 38.9648 8.71094 38.75C8.90625 38.0957 9.83398 37.2168 10.332 37.207C10.4004 37.207 10.5176 37.3535 10.5957 37.5195ZM40.4004 37.5586C40.8008 37.8613 41.1523 38.3301 41.2988 38.7598C41.3574 38.9453 41.4062 39.6973 41.4062 40.4395V41.7969H39.4629H37.5195L38.3887 39.8145C38.8672 38.7305 39.3262 37.6953 39.4141 37.5098C39.541 37.2266 39.5898 37.1973 39.8242 37.2559C39.9707 37.2949 40.2246 37.4316 40.4004 37.5586ZM22.7051 39.7461L23.7305 41.7969H21.4258H19.1113L19.1797 41.2891C19.3164 40.2734 19.8926 39.1016 20.5762 38.4668C20.8301 38.2227 21.5625 37.6953 21.6406 37.6953C21.6602 37.6953 22.1387 38.6133 22.7051 39.7461ZM29.2578 38.3203C30.0488 38.9941 30.6738 40.1953 30.8203 41.3184L30.8887 41.7969H28.5742H26.2695L27.2949 39.7461L28.3203 37.6953L28.5938 37.832C28.7402 37.9102 29.043 38.125 29.2578 38.3203Z" fill="white"/>
</svg>
