<svg width="12" height="13" viewBox="0 0 12 13" fill="none" xmlns="http://www.w3.org/2000/svg">
<g clip-path="url(#clip0_254_130)">
<path d="M9.5 1.01471H9V0.507353C9 0.372795 8.94732 0.243747 8.85355 0.1486C8.75979 0.0534531 8.63261 0 8.5 0C8.36739 0 8.24021 0.0534531 8.14645 0.1486C8.05268 0.243747 8 0.372795 8 0.507353V1.01471H4V0.507353C4 0.372795 3.94732 0.243747 3.85355 0.1486C3.75979 0.0534531 3.63261 0 3.5 0C3.36739 0 3.24021 0.0534531 3.14645 0.1486C3.05268 0.243747 3 0.372795 3 0.507353V1.01471H2.5C1.8372 1.01551 1.20178 1.28304 0.73311 1.7586C0.264441 2.23416 0.000793929 2.87893 0 3.55147L0 9.6397C0.000793929 10.3122 0.264441 10.957 0.73311 11.4326C1.20178 11.9081 1.8372 12.1757 2.5 12.1765H9.5C10.1628 12.1757 10.7982 11.9081 11.2669 11.4326C11.7356 10.957 11.9992 10.3122 12 9.6397V3.55147C11.9992 2.87893 11.7356 2.23416 11.2669 1.7586C10.7982 1.28304 10.1628 1.01551 9.5 1.01471ZM1 3.55147C1 3.1478 1.15804 2.76065 1.43934 2.47521C1.72064 2.18977 2.10218 2.02941 2.5 2.02941H9.5C9.89782 2.02941 10.2794 2.18977 10.5607 2.47521C10.842 2.76065 11 3.1478 11 3.55147V4.05882H1V3.55147ZM9.5 11.1618H2.5C2.10218 11.1618 1.72064 11.0014 1.43934 10.716C1.15804 10.4305 1 10.0434 1 9.6397V5.07353H11V9.6397C11 10.0434 10.842 10.4305 10.5607 10.716C10.2794 11.0014 9.89782 11.1618 9.5 11.1618Z" fill="#DF42B1"/>
<path d="M6 8.3713C6.41421 8.3713 6.75 8.03058 6.75 7.61027C6.75 7.18997 6.41421 6.84924 6 6.84924C5.58579 6.84924 5.25 7.18997 5.25 7.61027C5.25 8.03058 5.58579 8.3713 6 8.3713Z" fill="#DF42B1"/>
<path d="M3.5498 8.32205C3.96402 8.32205 4.2998 7.98132 4.2998 7.56102C4.2998 7.14071 3.96402 6.79999 3.5498 6.79999C3.13559 6.79999 2.7998 7.14071 2.7998 7.56102C2.7998 7.98132 3.13559 8.32205 3.5498 8.32205Z" fill="#DF42B1"/>
<path d="M8.5 8.3713C8.91421 8.3713 9.25 8.03058 9.25 7.61027C9.25 7.18997 8.91421 6.84924 8.5 6.84924C8.08579 6.84924 7.75 7.18997 7.75 7.61027C7.75 8.03058 8.08579 8.3713 8.5 8.3713Z" fill="#DF42B1"/>
</g>
<defs>
<clipPath id="clip0_254_130">
<rect width="12" height="12.1765" fill="white"/>
</clipPath>
</defs>
</svg>
