<svg width="12" height="13" viewBox="0 0 12 13" fill="none" xmlns="http://www.w3.org/2000/svg">
<path d="M6 12.1176C2.6915 12.1176 0 9.38655 0 6.0294C0 2.67224 2.6915 -0.0588379 6 -0.0588379C9.3085 -0.0588379 12 2.67224 12 6.0294C12 9.38655 9.3085 12.1176 6 12.1176ZM6 0.955868C3.243 0.955868 1 3.23185 1 6.0294C1 8.82694 3.243 11.1029 6 11.1029C8.757 11.1029 11 8.82694 11 6.0294C11 3.23185 8.757 0.955868 6 0.955868ZM7.25 8.22623C7.4895 8.08621 7.5715 7.77571 7.433 7.53319L6.5 5.89343V2.98528C6.5 2.70522 6.2765 2.47793 6 2.47793C5.7235 2.47793 5.5 2.70522 5.5 2.98528V6.0294C5.5 6.11869 5.523 6.20596 5.567 6.28307L6.567 8.04054C6.66 8.2034 6.8275 8.29422 7.0005 8.29422C7.0855 8.29422 7.1715 8.2724 7.25 8.22623Z" fill="#DF42B1"/>
</svg>
