<svg width="12" height="13" viewBox="0 0 12 13" fill="none" xmlns="http://www.w3.org/2000/svg">
<path d="M6 6.08818C6.39556 6.08818 6.78224 5.96916 7.11114 5.74616C7.44004 5.52317 7.69639 5.20622 7.84776 4.83539C7.99914 4.46457 8.03874 4.05652 7.96157 3.66285C7.8844 3.26918 7.69392 2.90758 7.41422 2.62376C7.13451 2.33994 6.77814 2.14666 6.39018 2.06835C6.00222 1.99005 5.60009 2.03024 5.23463 2.18384C4.86918 2.33744 4.55682 2.59755 4.33706 2.93129C4.1173 3.26502 4 3.65739 4 4.05877C4 4.597 4.21071 5.11319 4.58579 5.49378C4.96086 5.87437 5.46957 6.08818 6 6.08818ZM6 3.04406C6.19778 3.04406 6.39112 3.10358 6.55557 3.21507C6.72002 3.32657 6.84819 3.48505 6.92388 3.67046C6.99957 3.85587 7.01937 4.0599 6.98079 4.25673C6.9422 4.45356 6.84696 4.63437 6.70711 4.77628C6.56726 4.91818 6.38907 5.01483 6.19509 5.05398C6.00111 5.09313 5.80004 5.07304 5.61732 4.99624C5.43459 4.91944 5.27841 4.78938 5.16853 4.62251C5.05865 4.45564 5 4.25946 5 4.05877C5 3.78965 5.10536 3.53156 5.29289 3.34126C5.48043 3.15097 5.73478 3.04406 6 3.04406ZM8 11.1769L12 12.1653V6.84059C11.9999 6.51379 11.8961 6.1957 11.7041 5.93338C11.512 5.67105 11.2418 5.47842 10.9335 5.38398L9.8835 5.02883C9.96028 4.71237 9.99939 4.38772 10 4.06181C10 2.98535 9.57858 1.95297 8.82843 1.19179C8.07828 0.430615 7.06087 0.00299072 6 0.00299072C4.93914 0.00299072 3.92172 0.430615 3.17157 1.19179C2.42143 1.95297 2 2.98535 2 4.06181C2.00148 4.26777 2.01819 4.47331 2.05 4.67673C1.82293 4.58487 1.57715 4.55088 1.33414 4.57771C1.09113 4.60455 0.858299 4.6914 0.656023 4.83067C0.453748 4.96994 0.288186 5.15739 0.173823 5.37661C0.0594595 5.59583 -0.000221605 5.84014 6.18321e-07 6.08818V11.0359L3.9915 12.1932L8 11.1769ZM3.8785 1.90962C4.44212 1.34583 5.20247 1.03087 5.99391 1.03336C6.78536 1.03585 7.54376 1.35559 8.10393 1.92292C8.66409 2.49025 8.98062 3.25921 8.98457 4.06228C8.98852 4.86536 8.67956 5.63748 8.125 6.21045L6 8.32053L3.8785 6.21451C3.31593 5.64364 2.99989 4.86938 2.99989 4.06207C2.99989 3.25475 3.31593 2.4805 3.8785 1.90962ZM1 6.08818C0.99937 6.0045 1.01946 5.922 1.05842 5.84825C1.09738 5.7745 1.15397 5.71185 1.223 5.66606C1.29521 5.61798 1.37839 5.58955 1.46455 5.58351C1.55072 5.57746 1.63696 5.59401 1.715 5.63156L2.432 5.89437C2.62383 6.27984 2.87479 6.63193 3.1755 6.93749L6 9.74112L8.8285 6.93394C9.10663 6.65213 9.34247 6.33042 9.5285 5.9791L10.637 6.35505C10.7414 6.38535 10.8333 6.44932 10.8987 6.53728C10.9641 6.62525 10.9995 6.73243 10.9995 6.84262V10.8756L8 10.1318L4.01 11.1465L1 10.2718V6.08818Z" fill="#DF42B1"/>
</svg>
