<?xml version="1.0" standalone="no"?>
<!DOCTYPE svg PUBLIC "-//W3C//DTD SVG 20010904//EN"
 "http://www.w3.org/TR/2001/REC-SVG-20010904/DTD/svg10.dtd">
<svg version="1.0" xmlns="http://www.w3.org/2000/svg"
 width="512.000000pt" height="512.000000pt" viewBox="0 0 512.000000 512.000000"
 preserveAspectRatio="xMidYMid meet">

<g transform="translate(0.000000,512.000000) scale(0.100000,-0.100000)"
fill="#000000" stroke="none">
<path d="M343 4777 l-343 -342 0 -2193 0 -2193 25 -24 24 -25 1476 0 1476 0
24 25 c33 32 33 78 0 110 l-24 25 -1421 0 -1420 0 0 2080 0 2080 295 0 296 0
24 25 25 24 0 296 0 295 1520 0 1520 0 0 -775 0 -776 25 -24 c15 -16 36 -25
55 -25 19 0 40 9 55 25 l25 24 0 831 0 831 -25 24 -24 25 -1633 0 -1633 0
-342 -343z m297 -117 l0 -180 -182 0 -183 0 180 180 c99 99 181 180 182 180 2
0 3 -81 3 -180z"/>
<path d="M1873 4466 c-366 -70 -642 -342 -710 -701 -21 -107 -13 -292 16 -393
89 -308 349 -552 659 -618 109 -22 283 -18 394 10 368 93 631 409 655 787 22
358 -174 690 -500 844 -150 71 -360 100 -514 71z m342 -176 c244 -75 427 -262
493 -503 26 -98 23 -282 -6 -377 -71 -225 -232 -395 -452 -475 -101 -37 -284
-46 -393 -20 -241 58 -436 238 -513 471 -26 80 -29 102 -29 224 0 115 4 145
23 205 91 270 306 453 587 499 64 10 221 -3 290 -24z"/>
<path d="M2326 3828 c-17 -18 -114 -129 -215 -245 -100 -117 -187 -213 -192
-213 -6 0 -48 26 -93 59 -128 91 -153 99 -193 61 -30 -27 -36 -55 -21 -87 12
-26 246 -203 295 -223 47 -19 74 5 309 277 126 146 234 275 241 287 19 33 15
55 -16 87 -39 39 -74 38 -115 -3z"/>
<path d="M4403 3345 c-141 -31 -274 -122 -358 -245 -63 -93 -91 -177 -105
-316 -28 -280 -112 -541 -231 -715 -78 -116 -247 -266 -370 -329 -36 -19 -37
-19 -110 5 -117 37 -221 55 -317 55 -110 0 -170 -19 -214 -68 -18 -21 -105
-162 -192 -315 -150 -262 -159 -280 -159 -329 1 -69 29 -141 89 -225 224 -316
834 -698 1320 -829 78 -21 124 -27 214 -28 104 -1 120 1 171 25 64 30 57 20
246 349 167 289 163 280 163 339 0 106 -69 221 -223 376 l-100 100 11 127 c15
166 42 270 102 393 92 188 257 372 493 548 211 158 298 325 284 544 -25 361
-361 615 -714 538z m246 -164 c82 -26 138 -60 195 -120 118 -127 147 -313 73
-473 -34 -76 -74 -118 -207 -216 -269 -201 -475 -454 -559 -689 -35 -94 -71
-261 -71 -322 0 -24 -5 -41 -11 -41 -6 0 -32 15 -58 34 -84 61 -214 138 -364
216 l-148 77 68 50 c88 66 232 215 284 295 119 183 206 441 239 703 6 50 15
116 20 148 39 248 300 412 539 338z m-1551 -1566 c263 -64 632 -249 912 -457
189 -141 380 -355 380 -427 0 -14 -43 -100 -96 -193 l-96 -168 -31 43 c-156
216 -480 464 -846 647 -261 131 -531 220 -668 220 -18 0 -33 3 -33 8 0 13 190
336 203 344 26 17 173 8 275 -17z m-283 -525 c363 -98 824 -363 1091 -625 111
-110 172 -192 181 -248 5 -33 3 -38 -21 -47 -161 -61 -666 128 -1074 402 -238
160 -449 373 -481 486 -16 54 3 63 129 58 54 -2 130 -14 175 -26z"/>
<path d="M528 2340 c-25 -26 -29 -36 -24 -63 3 -18 16 -40 27 -49 20 -17 106
-18 1488 -18 1463 0 1467 0 1489 20 32 30 33 82 1 115 -19 20 -34 20 -1485 23
l-1465 2 -31 -30z"/>
<path d="M529 1811 c-31 -32 -35 -50 -17 -84 25 -48 -7 -46 916 -47 l873 0 24
25 c33 32 33 78 0 110 l-24 25 -871 0 -872 0 -29 -29z"/>
<path d="M542 1303 c-15 -6 -42 -56 -42 -78 0 -9 13 -30 29 -46 l29 -29 742 0
742 0 30 30 c25 26 29 36 24 63 -3 18 -16 40 -27 50 -20 16 -71 17 -768 16
-410 0 -752 -3 -759 -6z"/>
<path d="M553 760 c-34 -14 -56 -54 -48 -90 14 -63 -32 -60 875 -60 l827 0 21
23 c40 43 25 107 -29 126 -39 14 -1612 14 -1646 1z"/>
</g>
</svg>
