<svg width="18" height="18" viewBox="0 0 18 18" fill="none" xmlns="http://www.w3.org/2000/svg">
<path d="M17.0753 6.71468L11.6512 1.87095C10.95 1.2174 9.99956 0.849385 9.00795 0.84742C8.01633 0.845455 7.06425 1.2097 6.36 1.86046L0.92475 6.71468C0.633053 6.9761 0.400836 7.28962 0.241955 7.63653C0.0830744 7.98344 0.000786007 8.35663 0 8.73383L0 17.627H18V8.73383C17.9992 8.35663 17.9169 7.98344 17.758 7.63653C17.5992 7.28962 17.3669 6.9761 17.0753 6.71468ZM7.40925 2.85955C7.83918 2.47497 8.41258 2.26116 9.00843 2.26325C9.60427 2.26534 10.1759 2.48316 10.6027 2.87074L15.6637 7.39006L10.5907 12.1191C10.162 12.5001 9.59236 12.7127 9 12.7127C8.40764 12.7127 7.83801 12.5001 7.40925 12.1191L2.33625 7.39006L7.40925 2.85955ZM16.5 16.2287H1.5V8.73383C1.5 8.68908 1.50975 8.64574 1.51425 8.60099L6.34875 13.1077C7.05198 13.7631 8.00563 14.1312 9 14.1312C9.99437 14.1312 10.948 13.7631 11.6512 13.1077L16.4858 8.60099C16.4903 8.64574 16.5 8.68908 16.5 8.73383V16.2287Z" fill="white"/>
</svg>
