<svg width="30" height="18" viewBox="0 0 30 18" fill="none" xmlns="http://www.w3.org/2000/svg">
<path d="M29.5763 0.292725H1.62294C1.05875 0.292725 0.599609 0.720734 0.599609 1.24668V16.3469C0.599609 16.8728 1.05875 17.3006 1.62294 17.3006H29.5763C30.1405 17.3006 30.5996 16.8728 30.5996 16.3469V1.24668C30.5996 0.720734 30.1405 0.292725 29.5763 0.292725V0.292725ZM2.35925 2.64293L10.7679 7.85287L2.35925 14.6763V2.64293ZM15.5996 8.8768L4.39264 1.93307H26.8066L15.5996 8.8768ZM12.2877 8.79423L15.0331 10.4954C15.2052 10.6021 15.4023 10.6554 15.5996 10.6554C15.7967 10.6554 15.994 10.6019 16.1661 10.4954L18.9115 8.79423L27.3726 15.6603H3.82661L12.2877 8.79423ZM20.4313 7.85265L28.84 2.64272V14.6763L20.4313 7.85265Z" fill="#DF42B1"/>
</svg>
