<svg width="542" height="243" viewBox="0 0 542 243" fill="none" xmlns="http://www.w3.org/2000/svg">
<path d="M264.003 101.932V140.774H256.064V55.7181H264.003V66.3211C265.968 62.7299 268.652 59.8192 272.055 57.589C275.457 55.3581 279.502 54.2427 284.19 54.2427C288.311 54.2427 292.176 55.018 295.785 56.5687C299.395 58.1181 302.562 60.2631 305.284 63.0038C308.006 65.7445 310.142 68.9107 311.691 72.5026C313.24 76.0932 314.015 79.949 314.015 84.07C314.015 88.191 313.24 92.0658 311.691 95.6943C310.142 99.3228 308.005 102.507 305.283 105.248C302.56 107.989 299.394 110.134 295.785 111.684C292.176 113.234 288.311 114.009 284.19 114.009C279.502 114.009 275.456 112.894 272.054 110.663C268.652 108.433 265.968 105.523 264.002 101.932M284.132 61.9555C280.162 61.9555 276.713 62.9478 273.784 64.9325C270.855 66.9171 268.596 69.5726 267.007 72.899C265.418 76.2253 264.624 79.949 264.625 84.07C264.625 88.1145 265.409 91.8189 266.978 95.1832C268.547 98.5475 270.796 101.232 273.726 103.235C276.657 105.239 280.125 106.241 284.132 106.24C288.063 106.24 291.683 105.258 294.99 103.292C298.298 101.327 300.954 98.6712 302.957 95.3249C304.961 91.9799 305.963 88.2286 305.963 84.071C305.963 80.0252 304.98 76.3295 303.014 72.9838C301.048 69.6382 298.42 66.9637 295.132 64.9604C291.844 62.9572 288.177 61.9555 284.132 61.9555ZM323.087 112.422V55.7181H331.025V112.422H323.087ZM327.113 45.795C325.828 45.795 324.741 45.3697 323.853 44.5191C322.964 43.6686 322.52 42.6004 322.52 41.3146C322.52 40.0288 322.964 38.9609 323.852 38.111C324.741 37.2611 325.828 36.8358 327.113 36.8352C328.36 36.8352 329.428 37.2605 330.316 38.111C331.205 38.9616 331.649 40.0294 331.649 41.3146C331.649 42.5997 331.215 43.6679 330.345 44.5191C329.476 45.3703 328.399 45.7956 327.113 45.795ZM384.554 98.1881L391.642 102.045C389.071 105.636 385.811 108.509 381.861 110.664C377.911 112.819 373.63 113.896 369.017 113.895C363.8 113.895 359.047 112.554 354.756 109.87C350.465 107.187 347.044 103.586 344.492 99.0676C341.941 94.5493 340.665 89.5501 340.665 84.07C340.665 79.9117 341.402 76.0273 342.877 72.4168C344.352 68.8063 346.383 65.631 348.972 62.8909C351.561 60.1503 354.577 58.0049 358.017 56.4549C361.458 54.9048 365.125 54.1302 369.017 54.1308C373.629 54.1308 377.911 55.2077 381.862 57.3614C385.813 59.5151 389.073 62.4072 391.642 66.0376L384.554 69.8372C382.588 67.3427 380.226 65.4243 377.466 64.0819C374.707 62.7395 371.89 62.0684 369.017 62.0684C365.199 62.0684 361.74 63.0796 358.64 65.1022C355.54 67.1248 353.092 69.7992 351.297 73.1256C349.501 76.452 348.603 80.1004 348.603 84.071C348.603 88.0415 349.52 91.689 351.354 95.0134C353.187 98.3379 355.654 100.993 358.754 102.98C361.854 104.967 365.275 105.959 369.017 105.957C372.117 105.957 375.028 105.239 377.75 103.803C380.472 102.366 382.74 100.495 384.554 98.19M425.777 78.5703L445.397 112.423H436.268L420.391 85.0353L409.05 98.5864V112.423H401.111V27.3672H409.05V86.2253L434.624 55.7191H445.001L425.777 78.5703ZM281.013 215.142C275.796 215.142 271.042 213.8 266.752 211.115C262.462 208.431 259.04 204.831 256.489 200.315C253.937 195.798 252.661 190.798 252.66 185.315C252.66 181.157 253.398 177.273 254.872 173.663C256.347 170.053 258.379 166.877 260.968 164.136C263.557 161.395 266.572 159.249 270.014 157.7C273.455 156.151 277.122 155.376 281.013 155.376C285.209 155.376 289.074 156.208 292.608 157.871C296.143 159.534 299.186 161.859 301.738 164.845C304.29 167.831 306.218 171.328 307.522 175.335C308.826 179.342 309.365 183.671 309.138 188.32H261.053C261.507 191.911 262.65 195.125 264.484 197.96C266.318 200.795 268.661 203.035 271.514 204.679C274.369 206.324 277.535 207.165 281.013 207.203C284.793 207.203 288.205 206.22 291.248 204.254C294.291 202.288 296.738 199.585 298.591 196.146L306.644 198.017C304.375 203.044 300.954 207.155 296.38 210.351C291.806 213.546 286.684 215.143 281.013 215.142ZM260.826 181.913H301.143C300.878 178.398 299.81 175.175 297.939 172.245C296.068 169.316 293.659 166.972 290.71 165.213C287.761 163.455 284.528 162.576 281.013 162.577C277.498 162.577 274.284 163.438 271.373 165.157C268.462 166.877 266.081 169.202 264.229 172.132C262.376 175.061 261.242 178.322 260.826 181.913ZM364.48 156.794L343.784 213.667H333.692L312.995 156.794H321.443L338.738 204.368L356.033 156.794H364.48ZM396.632 215.142C391.415 215.142 386.662 213.8 382.371 211.115C378.08 208.431 374.659 204.831 372.107 200.315C369.556 195.798 368.28 190.798 368.28 185.315C368.28 181.157 369.017 177.273 370.491 173.663C371.965 170.053 373.997 166.877 376.587 164.136C379.176 161.395 382.192 159.249 385.632 157.7C389.073 156.151 392.74 155.376 396.632 155.376C400.828 155.376 404.694 156.208 408.228 157.871C411.762 159.534 414.805 161.859 417.357 164.845C419.908 167.831 421.836 171.328 423.141 175.335C424.445 179.342 424.984 183.671 424.757 188.32H376.673C377.127 191.911 378.27 195.125 380.104 197.96C381.937 200.795 384.281 203.035 387.135 204.679C389.989 206.324 393.155 207.165 396.634 207.203C400.414 207.203 403.825 206.22 406.867 204.254C409.91 202.288 412.357 199.585 414.211 196.146L422.263 198.017C419.995 203.044 416.574 207.155 412 210.351C407.425 213.546 402.302 215.143 396.632 215.142ZM376.446 181.913H416.763C416.498 178.398 415.43 175.175 413.559 172.245C411.688 169.316 409.278 166.972 406.329 165.213C403.38 163.455 400.148 162.576 396.633 162.577C393.117 162.577 389.904 163.438 386.993 165.157C384.082 166.877 381.7 169.202 379.848 172.132C377.996 175.061 376.862 178.322 376.446 181.913ZM483.9 178.567V213.667H475.961V180.156C475.961 177.056 475.205 174.239 473.693 171.706C472.181 169.173 470.159 167.151 467.627 165.639C465.096 164.126 462.279 163.37 459.177 163.37C456.115 163.37 453.309 164.126 450.758 165.639C448.207 167.151 446.175 169.173 444.661 171.706C443.148 174.239 442.392 177.056 442.393 180.155V213.667H434.455V156.963H442.393V164.788C444.396 161.916 447.005 159.629 450.218 157.928C453.431 156.227 456.928 155.376 460.708 155.376C464.98 155.376 468.873 156.416 472.389 158.495C475.905 160.574 478.703 163.371 480.781 166.886C482.86 170.402 483.899 174.296 483.9 178.568M524.216 156.964V164.903H510.664L510.607 213.668H502.669L502.727 164.903H492.462V156.964H502.726L502.669 139.159H510.607L510.665 156.964H524.216Z" fill="white"/>
<path fill-rule="evenodd" clip-rule="evenodd" d="M97.2098 17.7418L97.3304 17.682L97.3901 17.6531L97.4808 17.5615L97.5406 17.5017C97.5406 17.4612 97.5608 17.4309 97.6013 17.411V17.2905L97.6303 17.2615V17.1709L97.6611 17.1101V16.9896L97.691 16.9298V16.7495L97.7209 16.599L97.8414 16.5084L97.7517 16.4486V16.599L96.0362 17.8922L97.2098 17.7418ZM97.8714 16.4785C99.045 16.8999 99.4066 15.8169 99.9775 15.1245L100.128 15.004L100.278 14.8536L97.8714 16.4785ZM138.189 175.943C165.659 143.329 182.869 106.17 186.39 63.2649C187.674 50.6076 186.174 37.8227 181.997 25.8057C180.553 21.8345 179.349 17.5913 175.799 14.7928C171.827 11.5847 167.545 8.81705 162.951 6.48975C153.29 1.48128 142.344 -0.500418 131.54 0.80298C120.829 2.12703 111.531 6.64019 102.956 12.9278L102.836 13.0184C102.535 13.2286 102.296 13.4398 102.535 13.8911C102.986 14.192 103.287 13.8911 103.649 13.6799C110.027 10.6712 116.587 8.11372 123.596 7.1513C138.159 5.1358 150.525 9.01635 159.792 20.8412C167.555 30.7104 170.473 42.3539 171.526 54.5395C172.639 67.1763 171.586 79.7225 168.638 92.0286C157.656 137.762 134.94 175.583 94.6822 201.849C94.6424 201.789 94.6424 201.799 94.6822 201.879C96.9687 202.751 99.2861 203.533 101.513 204.467C102.867 205.038 103.92 204.887 105.213 204.166C117.702 196.688 128.841 187.157 138.159 175.973" fill="url(#paint0_linear_118_40)"/>
<path fill-rule="evenodd" clip-rule="evenodd" d="M119.675 169.926C142.301 142.396 156.291 111.255 158.488 75.36C159.391 61.0085 157.646 46.9888 150.275 34.2603C143.354 22.3458 133.064 15.5761 118.983 15.065C110.498 14.7641 102.615 17.0207 94.9131 20.2696C94.8524 18.1036 93.8601 19.2473 93.1079 19.7883C81.6138 27.8848 71.3917 37.6506 62.7791 48.7632C48.2257 67.3028 37.2568 88.3936 30.4348 110.954C27.968 119.078 26.2225 127.322 24.9284 135.686C24.7181 137.13 25.0489 137.552 26.5533 137.582C32.5111 137.672 32.5111 137.732 33.3539 131.865L33.5641 130.12C38.7917 102.942 49.4778 77.108 64.9759 54.179C72.2922 42.9756 80.9403 32.701 90.7308 23.5802C91.6932 24.3015 90.0692 24.8126 90.4299 25.4751C90.4299 25.515 90.4601 25.5651 90.5205 25.6256H91.0616L92.2651 25.2639C99.7581 23.1886 107.309 22.556 114.892 24.5117C128.13 27.912 136.103 36.9981 140.857 49.3052C146.484 63.8379 146.453 78.8509 144.107 93.9546C140.704 115.022 132.858 135.124 121.09 152.927C109.896 170.077 96.297 184.819 78.0033 194.689C77.7622 194.839 77.4015 194.99 77.5828 195.41L78.0033 195.651C79.6581 196.253 81.3737 196.764 82.9379 197.547C84.8637 198.48 86.368 198.149 88.2331 197.096C100.246 189.981 110.894 180.781 119.675 169.926ZM160.835 179.464C184.95 150.984 202.459 117.518 212.105 81.4682C213.247 77.8925 213.162 74.038 211.864 70.516C209.167 62.7492 205.826 55.2213 201.875 48.011C201.556 55.4676 200.822 62.9007 199.678 70.2759C195.135 96.579 185.837 121.834 172.239 144.803C160.715 164.601 146.785 182.442 129.033 197.155C123.868 201.364 118.386 205.166 112.635 208.529C115.583 209.642 118.17 210.544 120.698 211.627C122.232 212.32 123.437 212.079 124.85 211.206C138.436 202.578 150.579 191.866 160.835 179.464Z" fill="url(#paint1_linear_118_40)"/>
<path fill-rule="evenodd" clip-rule="evenodd" d="M105.403 145.225C105.073 145.827 104.682 146.397 104.562 147.03C103.271 155.002 100.754 162.725 97.0994 169.927C97.6105 169.836 97.9422 169.866 98.0927 169.746C99.4968 168.201 100.871 166.617 102.214 164.992C118.08 145.66 128.535 122.467 132.514 97.7769C134.619 84.628 134.438 71.5099 130.196 58.7226C124.39 41.0905 110.789 29.0862 90.5708 30.7411C85.5156 31.1615 83.7104 32.4258 81.8145 37.6612L81.9957 37.7509L83.259 37.8416C99.2672 37.992 110.158 45.9045 116.627 60.1962C122.283 72.7424 122.704 86.0417 121.049 99.4307C118.909 115.579 113.591 131.143 105.403 145.225Z" fill="url(#paint2_linear_118_40)"/>
<path fill-rule="evenodd" clip-rule="evenodd" d="M86.7081 79.493C86.8283 79.2121 86.899 78.9713 86.9202 78.7707C86.9143 78.355 86.8216 77.9451 86.6483 77.5672C84.3056 71.8842 80.6566 66.8334 75.997 62.8242C74.4328 61.5609 71.5745 61.1096 71.4549 59.0633C71.3334 57.1982 72.9593 55.2425 73.6498 53.2868C74.0712 52.0525 74.5524 51.8721 75.7868 52.3234C82.6465 54.7909 88.0823 59.0633 92.094 65.1406C99.0739 75.6713 100.76 87.4653 100.188 99.7724C100.127 101.156 100.188 102.419 100.67 103.684C102.962 110.058 104.477 116.685 105.183 123.421C106.235 122.819 106.205 121.856 106.446 121.104C108.22 115.508 109.508 109.77 110.297 103.954C111.892 91.6776 111.651 79.493 106.957 67.7887C102.384 56.446 94.772 48.2317 82.5565 45.1323C78.1938 44.0194 78.2237 44.0493 75.726 47.7505C67.9908 59.2004 61.3235 71.3366 55.8084 84.0062C48.4272 100.53 43.2381 117.948 40.373 135.817C40.1628 137.232 40.373 137.622 41.7568 137.533C43.5203 137.415 45.2896 137.415 47.053 137.533C48.8274 137.683 49.3096 136.87 49.5507 135.277C51.2344 124.925 53.9124 114.816 56.982 104.827C59.5086 96.5823 63.4817 88.8501 65.0449 80.2751C65.7971 76.0628 67.1809 72.0309 68.1742 67.8794C68.6255 66.0433 69.1964 65.6517 71.0026 66.6759C76.9248 70.0291 82.2353 74.3636 86.7081 79.493ZM219.306 102.961C200.019 148.183 174.835 188.29 133.405 216.212C136.594 217.415 139.663 218.497 142.672 219.732C143.875 220.243 144.777 220.033 145.86 219.31C154.131 213.861 161.885 207.667 169.028 200.806C190.089 180.648 206.578 157.15 220.448 131.665C220.949 130.783 221.191 129.83 221.171 128.807C221.16 120.159 220.536 111.522 219.305 102.962M155.61 224.455C159.31 225.84 162.621 226.953 165.839 228.337C167.464 229.029 168.606 228.667 169.961 227.735C185.156 217.114 198.153 204.176 210.248 190.276C211.061 189.343 211.452 188.26 211.813 187.146C214.581 179.072 216.754 170.806 218.313 162.415C218.492 161.452 218.824 160.399 218.191 159.165C200.801 184.288 181.454 207.186 155.609 224.455M74.0114 33.3691C67.774 37.3029 61.9212 41.8157 56.5307 46.8479C41.5247 61.5768 29.7063 79.2329 21.8092 98.7202C16.8949 110.554 13.5853 122.809 11.8803 135.486C11.8195 136.178 11.3692 137.382 12.1812 137.502C14.0263 137.802 15.8515 137.802 17.6567 137.502C18.92 137.26 18.5594 135.696 18.6799 134.705C19.6124 127.362 21.2374 120.172 23.3136 113.101C29.913 90.8357 40.5539 70.6872 55.2365 52.6552C60.9731 45.7344 67.2317 39.3153 74.0124 33.3981" fill="url(#paint3_linear_118_40)"/>
<path fill-rule="evenodd" clip-rule="evenodd" d="M50.2024 50.7998L49.7212 50.2578C46.8646 51.6908 44.2544 53.5698 41.989 55.824C19.8469 76.0768 5.33652 103.323 0.888444 132.999C0.16711 137.934 0.136246 137.874 4.49993 137.813C5.76323 137.753 6.3052 137.423 6.3052 136.128C6.38492 134.684 6.56523 133.27 6.84618 131.886C11.3226 104.158 23.9546 78.3914 43.1318 57.8704C45.4385 55.4634 47.7954 53.0965 50.2024 50.7699" fill="url(#paint4_linear_118_40)"/>
<defs>
<linearGradient id="paint0_linear_118_40" x1="140.744" y1="0.413086" x2="140.744" y2="204.816" gradientUnits="userSpaceOnUse">
<stop stop-color="#505ADD"/>
<stop offset="1" stop-color="#DF42B1"/>
</linearGradient>
<linearGradient id="paint1_linear_118_40" x1="118.887" y1="15.0381" x2="118.887" y2="212.03" gradientUnits="userSpaceOnUse">
<stop stop-color="#505ADD"/>
<stop offset="1" stop-color="#DF42B1"/>
</linearGradient>
<linearGradient id="paint2_linear_118_40" x1="107.822" y1="30.5889" x2="107.822" y2="169.927" gradientUnits="userSpaceOnUse">
<stop stop-color="#505ADD"/>
<stop offset="1" stop-color="#DF42B1"/>
</linearGradient>
<linearGradient id="paint3_linear_118_40" x1="116.437" y1="33.3691" x2="116.437" y2="228.697" gradientUnits="userSpaceOnUse">
<stop stop-color="#505ADD"/>
<stop offset="1" stop-color="#DF42B1"/>
</linearGradient>
<linearGradient id="paint4_linear_118_40" x1="25.3639" y1="50.2578" x2="25.3639" y2="137.826" gradientUnits="userSpaceOnUse">
<stop stop-color="#505ADD"/>
<stop offset="1" stop-color="#DF42B1"/>
</linearGradient>
</defs>
</svg>
