<svg width="25" height="22" viewBox="0 0 25 22" fill="none" xmlns="http://www.w3.org/2000/svg">
<path d="M21.1011 12.3287C20.0469 11.4573 18.3316 11.4573 17.2775 12.3287L16.1246 13.2817C13.2618 11.9922 10.9451 10.0771 9.38483 7.71054L10.5377 6.75747C11.5922 5.88606 11.5922 4.46807 10.5377 3.59666L7.43086 1.02832C6.37673 0.156903 4.66142 0.156903 3.60728 1.02832L1.12192 3.08287C-0.301737 4.25976 -0.372757 6.28302 0.921837 8.78014C2.04591 10.9482 4.10299 13.3312 6.71417 15.4898C9.32535 17.6483 12.208 19.3489 14.8307 20.2781C16.2659 20.7865 17.5713 21.0401 18.6994 21.0401C19.9456 21.0401 20.9753 20.7305 21.7226 20.1127L24.208 18.0578V18.0581C24.7188 17.6358 25 17.0747 25 16.4777C25 15.8805 24.7188 15.3193 24.208 14.8973L21.1011 12.3287ZM19.7629 18.4926C19.3566 18.8285 18.107 18.9462 15.9227 18.1726C13.6161 17.3554 11.0417 15.8271 8.6739 13.8697C6.30607 11.9123 4.45773 9.78447 3.46921 7.87773C2.53296 6.07202 2.67536 5.03878 3.08166 4.70291L5.51943 2.6877L8.53042 5.17706L7.0873 6.37034C6.43477 6.90976 6.27723 7.72782 6.69578 8.40612C8.59315 11.4817 11.5627 13.9365 15.2831 15.505C16.104 15.851 17.0936 15.721 17.7462 15.1813L19.1893 13.9883L22.2006 16.4777L19.7629 18.4926Z" fill="#5B58D9"/>
</svg>
