<svg width="42" height="38" viewBox="0 0 42 38" fill="none" xmlns="http://www.w3.org/2000/svg">
<path d="M14.7503 0.166504L10.9378 4.33317H4.33366C2.04199 4.33317 0.166992 6.20817 0.166992 8.49984V33.4998C0.166992 35.7915 2.04199 37.6665 4.33366 37.6665H37.667C39.9587 37.6665 41.8337 35.7915 41.8337 33.4998V8.49984C41.8337 6.20817 39.9587 4.33317 37.667 4.33317H31.0628L27.2503 0.166504H14.7503ZM21.0003 31.4165C15.2503 31.4165 10.5837 26.7498 10.5837 20.9998C10.5837 15.2498 15.2503 10.5832 21.0003 10.5832C26.7503 10.5832 31.417 15.2498 31.417 20.9998C31.417 26.7498 26.7503 31.4165 21.0003 31.4165Z" fill="#E6E6E6"/>
</svg>
