<?xml version="1.0" standalone="no"?>
<!DOCTYPE svg PUBLIC "-//W3C//DTD SVG 20010904//EN"
 "http://www.w3.org/TR/2001/REC-SVG-20010904/DTD/svg10.dtd">
<svg version="1.0" xmlns="http://www.w3.org/2000/svg"
 width="512.000000pt" height="512.000000pt" viewBox="0 0 512.000000 512.000000"
 preserveAspectRatio="xMidYMid meet">

<g transform="translate(0.000000,512.000000) scale(0.100000,-0.100000)"
fill="#000000" stroke="none">
<path d="M2085 4536 c-66 -21 -98 -42 -148 -95 -58 -62 -67 -83 -108 -244
l-31 -126 -492 -3 c-551 -4 -544 -3 -628 -78 -210 -184 -92 -519 190 -538 39
-2 72 -6 72 -7 0 -39 324 -2641 332 -2665 28 -87 96 -157 186 -190 51 -19 81
-20 1102 -20 1026 0 1050 0 1103 20 75 28 131 79 166 153 30 61 33 87 186
1347 86 707 159 1301 162 1321 l5 37 72 4 c271 18 393 332 202 523 -90 91 -77
89 -642 93 l-492 3 -31 126 c-18 69 -38 141 -46 159 -22 53 -110 139 -168 165
-52 24 -53 24 -502 26 -344 2 -459 -1 -490 -11z m922 -192 c48 -23 63 -51 94
-170 l27 -104 -568 0 -568 0 27 104 c51 196 20 185 539 186 364 0 418 -2 449
-16z m1277 -478 c68 -28 95 -101 61 -166 -33 -64 95 -60 -1785 -60 -1880 0
-1752 -4 -1785 60 -33 64 -8 137 59 166 47 20 3401 20 3450 0z m-294 -423 c0
-5 -70 -588 -156 -1298 -100 -824 -162 -1302 -172 -1323 -30 -66 34 -62 -1104
-62 -1006 0 -1034 1 -1065 20 -21 13 -35 32 -43 57 -8 31 -320 2561 -320 2601
0 9 349 12 1430 12 787 0 1430 -3 1430 -7z"/>
<path d="M2523 2955 c-17 -7 -36 -22 -42 -34 -8 -13 -11 -271 -11 -835 l0
-815 24 -28 c34 -39 98 -39 132 0 l24 28 0 815 c0 565 -3 822 -11 836 -6 11
-26 26 -44 34 -40 16 -32 17 -72 -1z"/>
<path d="M1775 2934 c-18 -20 -25 -38 -25 -68 0 -23 20 -374 45 -781 25 -407
45 -755 45 -772 0 -49 47 -97 93 -97 36 0 70 21 88 56 8 15 -69 1427 -87 1587
-8 70 -36 101 -94 101 -31 0 -47 -6 -65 -26z"/>
<path d="M3215 2936 c-16 -16 -25 -39 -29 -77 -18 -162 -95 -1572 -87 -1587
18 -35 52 -56 88 -56 46 0 93 49 93 97 0 17 20 365 45 772 25 407 45 758 45
781 0 58 -34 94 -90 94 -30 0 -47 -6 -65 -24z"/>
</g>
</svg>
